<?xml version="1.0" standalone="no"?>
<!DOCTYPE svg PUBLIC "-//W3C//DTD SVG 20010904//EN"
 "http://www.w3.org/TR/2001/REC-SVG-20010904/DTD/svg10.dtd">
<svg version="1.0" xmlns="http://www.w3.org/2000/svg"
 width="16.000000pt" height="16.000000pt" viewBox="0 0 16.000000 16.000000"
 preserveAspectRatio="xMidYMid meet">

<g transform="translate(0.000000,16.000000) scale(0.100000,-0.100000)"
fill="#ffffff" stroke="none">
<path d="M25 135 c-50 -49 -15 -135 55 -135 41 0 80 39 80 80 0 41 -39 80 -80
80 -19 0 -40 -9 -55 -25z m88 -48 c-2 -28 1 -36 10 -31 8 5 7 2 -2 -9 -18 -23
-31 -21 -31 3 0 26 -20 26 -27 0 -3 -11 -9 -17 -14 -15 -4 3 -6 12 -2 20 3 8
1 15 -5 15 -6 0 2 14 16 30 36 41 58 35 55 -13z"/>
<path d="M75 100 c-3 -5 1 -10 9 -10 9 0 16 5 16 10 0 6 -4 10 -9 10 -6 0 -13
-4 -16 -10z"/>
</g>
</svg>
